<svg height='100px' width='100px'  fill="#1A1A1A" xmlns="http://www.w3.org/2000/svg" xmlns:xlink="http://www.w3.org/1999/xlink" version="1.1" x="0px" y="0px" viewBox="0 0 128 128" style="enable-background:new 0 0 128 128;" xml:space="preserve"><path d="M64,10c1.1044998,0,2-0.8955002,2-2V2c0-1.1045001-0.8955002-2-2-2s-2,0.8955-2,2v6C62,9.1044998,62.8955002,10,64,10z"></path><path d="M64,118c-1.1044998,0-2,0.8955002-2,2v6c0,1.1044998,0.8955002,2,2,2s2-0.8955002,2-2v-6  C66,118.8955002,65.1044998,118,64,118z"></path><path d="M126,62h-6c-1.1044998,0-2,0.8955002-2,2s0.8955002,2,2,2h6c1.1044998,0,2-0.8955002,2-2S127.1044998,62,126,62z"></path><path d="M8,62H2c-1.10449,0-2,0.8955002-2,2s0.89551,2,2,2h6c1.1044998,0,2-0.8955002,2-2S9.1044998,62,8,62z"></path><path d="M22.9878006,25.8164005c0.3900986,0.3906002,0.9022999,0.5858994,1.4140987,0.5858994  c0.5117016,0,1.0234013-0.1952991,1.4140015-0.5858994c0.7812996-0.7812004,0.7812996-2.0468998,0-2.8281002L21.5732002,18.7451  c-0.780201-0.7812004-2.0468006-0.7812004-2.8281002,0c-0.7812004,0.7812996-0.7812004,2.0468998,0,2.8281002L22.9878006,25.8164005  z"></path><path d="M22.9888,102.1846008l-4.2432003,4.2422028c-0.7812004,0.7801971-0.7812004,2.0467987-0.0004997,2.8280945  c0.3906002,0.3906021,0.9023991,0.5858994,1.4146004,0.5858994c0.5116997,0,1.0233994-0.1952972,1.4139996-0.5858994  l4.2432003-4.2421951c0.7812004-0.780304,0.7812004-2.0469055,0.0004997-2.8281021  C25.0370998,101.4042969,23.7709999,101.4032974,22.9888,102.1846008z"></path><path d="M103.5980988,26.4022999c0.511795,0,1.0240021-0.1952991,1.4141006-0.5858994l4.2431946-4.2432003  c0.7812042-0.7812004,0.7812042-2.0468006,0-2.8281002c-0.7802963-0.7812004-2.0478973-0.7812004-2.8281937,0l-4.243103,4.2432003  c-0.7813034,0.7812004-0.7813034,2.0468998,0,2.8281002C102.5741959,26.2070007,103.0863953,26.4022999,103.5980988,26.4022999z"></path><path d="M103.4315948,92.5058975c-0.3583984-0.3964996-0.8612976-0.6328964-1.3955002-0.6562958  c-0.5062943-0.010704-1.0087967,0.1523972-1.3945007,0.4843979l-4.4232941-4.6327972C101.1063995,81.0673981,104,72.8730011,104,64  c0-22.0918007-17.9082031-40-40-40S24,41.9081993,24,64s17.9081993,40,40,40c7.9785004,0,15.4042969-2.3447037,21.6449966-6.3701019  l4.3662033,4.5693054l-0.3490982,0.3144989l0.0233994,0.0262985c-0.6171036,0.7538986-0.6131973,1.8603973,0.0586014,2.6026001  l18.8984985,20.8866959C109.8266983,127.2997971,111.4643936,128,113.2548981,128h0.0004959  c1.7260056,0,3.3940048-0.6572037,4.696701-1.8516006l3.7846985-3.4676971c1.365303-1.25,2.1885071-2.9952011,2.2583008-4.7871017  c0.0659027-1.6817017-0.5170975-3.2705994-1.6190948-4.4493027L103.4315948,92.5058975z M28,64c0-19.8506012,16.1493988-36,36-36  s36,16.1493988,36,36s-16.1493988,36-36,36S28,83.8506012,28,64z M88.9253006,95.2733994  c1.6981964-1.3554001,3.2885971-2.839798,4.7451019-4.4491959l4.1498947,4.3466949l-4.8344955,4.3516006L88.9253006,95.2733994z   M119.0351944,119.7304993L115.25,123.1992035C114.6865005,123.7157974,113.9779968,124,113.255394,124  c-0.6684952,0-1.2670975-0.2480011-1.6664963-0.6757965l-17.5362015-19.380806l7.8999023-7.1103973l17.4789963,19.3183975  c0.4986038,0.5341034,0.5835037,1.1572037,0.5669022,1.5858994  C119.969696,118.4697037,119.6190948,119.1962967,119.0351944,119.7304993z"></path><path d="M64,34c-16.5684013,0-30,13.4315987-30,30s13.4315987,30,30,30s30-13.4316025,30-30S80.5683975,34,64,34z M64,90  c-14.3363991,0-26-11.6641006-26-26c0-14.3368988,11.6636009-26,26-26s26,11.6631012,26,26C90,78.3358994,78.3364029,90,64,90z"></path><path d="M77.2612,49.1416016l-18.8885994,7.5098c-0.4604988,0.1825981-0.8365021,0.5301971-1.0551987,0.9745979  l-9.1113014,18.4902039c-0.365799,0.7421951-0.2369003,1.6327972,0.3246994,2.2401962  C48.9169998,78.7753983,49.4530983,79,50.0004997,79c0.2480011,0,0.4985008-0.0458984,0.7383003-0.1416016l18.8890991-7.5077972  c0.4605026-0.1826019,0.8365021-0.530304,1.0551987-0.9746017l9.1108017-18.4921989  c0.365799-0.7421989,0.2369003-1.6328011-0.3246994-2.2411995C78.9082031,49.0351982,78.0302963,48.8339996,77.2612,49.1416016z   M59.4726982,62.3008003l6.2840996,6.2841988L54.091301,73.2217026L59.4726982,62.3008003z M68.5278015,65.7002029  l-6.2832031-6.2842026l11.6641006-4.6366997L68.5278015,65.7002029z"></path></svg>