<svg height='100px' width='100px'  fill="#B30083" xmlns="http://www.w3.org/2000/svg" xmlns:xlink="http://www.w3.org/1999/xlink" version="1.1" x="0px" y="0px" viewBox="0 0 100 100" enable-background="new 0 0 100 100" xml:space="preserve"><g><path d="M50.827,17.091H39.666l0.879-3.163c0.088-0.746,0.792-1.319,1.494-1.319h6.458c0.704,0,1.18,0.635,1.451,1.319   L50.827,17.091z"></path><g><path fill="#B30083" d="M93.272,67.623c-1.494,0-2.812-0.88-3.382-2.197c-0.574-1.407-0.176-3.033,0.923-4.041    c0.348-0.31,0.395-0.837,0.086-1.188c-0.746-0.966-1.627-1.846-2.55-2.592c-0.394-0.31-0.922-0.267-1.274,0.086    c-0.922,1.056-2.677,1.449-3.998,0.879c-1.402-0.57-2.283-1.978-2.197-3.472c0-0.479-0.353-0.922-0.79-0.965    c-1.231-0.134-2.458-0.134-3.646,0c-0.485,0.043-0.833,0.438-0.833,0.922c0.086,1.494-0.837,2.901-2.197,3.43    c-1.321,0.57-3.033,0.175-3.998-0.88c-0.31-0.353-0.88-0.396-1.232-0.133c-0.965,0.794-1.845,1.668-2.635,2.591    c-0.309,0.399-0.266,0.923,0.13,1.231c1.099,1.057,1.449,2.635,0.879,4.043c-0.57,1.364-1.931,2.196-3.515,2.196    c-0.527,0-0.879,0.352-0.922,0.79c-0.177,1.231-0.177,2.463-0.043,3.694c0.086,0.438,0.614,0.789,1.051,0.789    c1.451-0.043,2.815,0.837,3.344,2.24c0.57,1.365,0.218,2.99-0.88,3.998c-0.353,0.353-0.396,0.881-0.134,1.232    c0.79,0.965,1.627,1.846,2.592,2.634c0.353,0.311,0.923,0.22,1.231-0.086c0.966-1.099,2.682-1.492,4.043-0.922    c1.406,0.571,2.286,1.974,2.196,3.516c-0.043,0.479,0.309,0.922,0.79,0.964c0.617,0.091,1.23,0.091,1.845,0.091    c0.618,0,1.188,0,1.802-0.091c0.484-0.042,0.793-0.438,0.793-0.922c-0.046-1.537,0.834-2.9,2.241-3.472    c1.316-0.57,3.029-0.133,3.998,0.922c0.306,0.353,0.834,0.353,1.229,0.091c0.969-0.747,1.845-1.626,2.596-2.597    c0.304-0.394,0.262-0.922-0.09-1.226c-1.141-1.057-1.493-2.683-0.881-4.089c0.528-1.318,1.847-2.198,3.296-2.198h0.176    c0.484,0.048,0.923-0.305,0.971-0.789c0.128-1.232,0.128-2.459,0-3.69C94.237,67.976,93.71,67.623,93.272,67.623z M78.202,75.665    c-2.943,0-5.406-2.42-5.406-5.407c0-2.986,2.463-5.402,5.406-5.402c2.986,0,5.403,2.416,5.403,5.402    C83.605,73.245,81.188,75.665,78.202,75.665z"></path><path fill="#B30083" d="M43.577,53.387l0.088-0.043l-0.965-2.375l-0.968-2.328l-0.088,0.043    C35.141,35.326,21.696,27.33,7.548,27.287v-5.581h70.873v29.35c0.79,0,1.45,0,2.197,0.134c0.57,0.043,0.966-0.134,0.966,0.395    l0.133-30.624c0-1.45-1.189-2.594-2.639-2.594H38.113l-3.105-4.615c-0.327-0.507-1.006-0.94-1.654-1.071l-0.017,0.06l-0.051-0.039    l-0.034-0.046h-0.03c-0.107-0.018-0.176-0.002-0.279-0.002h-9.051c-0.005,0-0.009,0.002-0.013,0.002H6.888    c-1.451,0-2.592,1.141-2.592,2.591v54.351c0,1.407,1.142,2.596,2.592,2.596h51.937c-0.09-1.056-0.09-2.197,0-3.253H45.333    C45.862,63.843,45.291,58.527,43.577,53.387z M36.943,50.574l-9.361,3.821c-1.448-3.205-3.162-6.194-5.007-8.919l8.26-3.383    C33.251,44.553,35.36,47.366,36.943,50.574z M26.484,38.402l-7.029,2.856c-3.12-3.735-6.548-6.767-10.062-8.831    C15.544,32.779,21.477,34.888,26.484,38.402z M7.548,37.04c2.415,1.538,4.789,3.647,7.028,6.196l-7.028,2.855V37.04z     M7.548,51.584l10.28-4.175c1.846,2.682,3.56,5.668,5.053,8.921L8.821,62.041l-1.272-3.12V51.584z M11.633,68.94l-0.877-2.197    l14.059-5.711c0.922,2.635,1.715,5.317,2.242,7.908H11.633z M32.197,68.94c-0.616-3.253-1.496-6.505-2.68-9.843l9.314-3.823    c1.144,3.428,1.626,6.899,1.583,10.328l-8.128,3.338H32.197z"></path></g><g><path d="M49.616,47.3h-3.894l-4.83-7.535v-0.687l4.83-7.518h3.894l-4.864,7.869L49.616,47.3z"></path><path d="M55.199,50.15h-3.626l7.037-20.534h3.643L55.199,50.15z"></path><path d="M68.05,47.3h-3.892l4.861-7.87l-4.861-7.869h3.892l4.827,7.518v0.686L68.05,47.3z"></path></g></g></svg>