<svg height='100px' width='100px'  fill="#848484" xmlns="http://www.w3.org/2000/svg" viewBox="0 0 68 68" x="0px" y="0px"><path fill="#848484" fill-rule="evenodd" d="M574.054369,222.464316 L574.054369,222.464316 C573.374,224.177041 573,226.044815 573,228 C573,232.139479 574.676408,235.88707 577.387383,238.600993 C574.418796,239.510552 571.266556,240 568,240 C563.855514,240 559.895051,239.212107 556.260222,237.777934 L563.328728,231.494819 C563.662808,231.197859 563.887781,230.797545 563.96774,230.357771 L565.96774,219.357771 C566.145785,218.378524 565.576681,217.417375 564.632456,217.102633 L559.647895,215.441113 L556.929528,205.473765 C556.730205,204.742914 556.135065,204.187405 555.392232,204.038839 L550.392232,203.038839 C550.011795,202.962751 549.617441,202.998958 549.257219,203.143047 L545.481687,204.653259 L537.910763,197.082336 C542.373768,184.784904 554.160972,176 568,176 C573.529026,176 578.730541,177.402242 583.268316,179.870498 L581.364605,185.581629 L576.105573,188.211146 C575.518569,188.504647 575.112914,189.067463 575.020101,189.717157 L574.020101,196.717157 C573.950511,197.204285 574.062946,197.699971 574.335899,198.1094 L577.226499,202.4453 L572.8906,205.335899 C571.971542,205.948604 571.723194,207.190343 572.335899,208.1094 L575.862484,213.399277 L574.047626,221.566139 C573.979771,221.871484 573.985714,222.177402 574.054369,222.464316 Z M552.338537,235.912058 C542.587332,230.428898 536,219.983726 536,208 C536,205.769646 536.228178,203.592586 536.662463,201.49089 L543.585786,208.414214 C544.151512,208.979939 544.999948,209.154087 545.742781,208.856953 L550.190764,207.077761 L553.395703,207.718748 L556.070472,217.526235 C556.246421,218.171379 556.733154,218.685903 557.367544,218.897367 L561.721967,220.348841 L560.155666,228.963498 L552.338537,235.912058 L552.338537,235.912058 Z M598.600994,217.387383 L598.600994,217.387383 C595.887043,214.676392 592.139426,213 588,213 C584.824709,213 581.880007,213.986405 579.455561,215.669521 L579.952374,213.433861 C580.070643,212.901651 579.966519,212.344227 579.664101,211.8906 L576.773501,207.5547 L581.1094,204.664101 C582.028458,204.051396 582.276806,202.809657 581.664101,201.8906 L578.087963,196.526393 L578.831703,191.320217 L583.894427,188.788854 C584.368861,188.551638 584.729629,188.135668 584.897367,187.632456 L586.752368,182.067451 C594.778884,187.8817 600,197.331122 600,208 C600,211.266556 599.510552,214.418796 598.600994,217.387383 Z M594.235237,237.063665 L594.235237,237.063665 C592.463207,238.284959 590.315222,239 588,239 C581.924528,239 577,234.075885 577,228 C577,221.924528 581.924115,217 588,217 C594.075472,217 599,221.924115 599,228 C599,230.31514 598.284973,232.463152 597.063657,234.23523 L603.704267,240.87584 C604.090696,241.262269 604.094665,241.905335 603.700482,242.299518 L602.299518,243.700482 C601.899284,244.100716 601.267933,244.09636 600.87584,243.704267 L594.235237,237.063665 Z M581,228 C581,231.866671 584.133592,235 588,235 C591.866671,235 595,231.866408 595,228 C595,224.133329 591.866408,221 588,221 C584.133329,221 581,224.133592 581,228 Z" transform="translate(-536 -176)"></path></svg>